# xmcd
#
# Track frame offsets:
#       150
#       19410
#       45467
#       64387
#       89337
#       140585
#       165617
#       191305
#       215030
#       243867
#       276265
#       300415
#       322110
#
# Disc length: 4566 seconds
#
# Revision: 7
# Processed by: cddbd v1.5.2PL0 Copyright (c) Steve Scherf et al.
# Submitted via: FreeDbEdit v0.1
#
DISCID=bc11d40d
DTITLE=U2 - The Best of U2 (Limited Edition)
DYEAR=2001
DGENRE=Rock
TTITLE0=One (With Michael Stipe on Vocais - REM)
TTITLE1=Stay (Farewell So Close)
TTITLE2=Angel of Harlem
TTITLE3=Starring at the Sun
TTITLE4=Bad
TTITLE5=Running to Stand Still
TTITLE6=Where the Streets Have No Name
TTITLE7=Love Rescue Me (With Ziggi Marley)
TTITLE8=Miss Sarajevo (With Luciano Pavarotti)
TTITLE9=Please
TTITLE10=Desire (Hollywood Remix)
TTITLE11=Unchained Melody
TTITLE12=Stuckin a Moment You Can't Get Out Of
EXTD=YEAR: 2001
EXTT0=
EXTT1=
EXTT2=
EXTT3=
EXTT4=
EXTT5=
EXTT6=
EXTT7=
EXTT8=
EXTT9=
EXTT10=
EXTT11=
EXTT12=
PLAYORDER=
